# xmcd CD database file
#
# Track frame offsets:
#	150
#	21052
#	44465
#	70127
#	90917
#	112935
#	142560
#	162595
#	190947
#
# Disc length: 2762 seconds
#
# Revision: 0
# Processed by: cddbd v1.4PL0 Copyright (c) Steve Scherf et al.
# Submitted via: CDex 1.50
#
DISCID=680ac809
DTITLE=山歌新唱 - 山海情
DYEAR=1900
DGENRE=New Age
TTITLE0=朋友歡聚之歌
TTITLE1='布歌
TTITLE2=懷念年祭
TTITLE3=醉人的鬼湯
TTITLE4=除草歌
TTITLE5=la yi su
TTITLE6=雅美情歌
TTITLE7=對口情歌
TTITLE8=抓抓歌
EXTD=
EXTT0=
EXTT1=
EXTT2=
EXTT3=
EXTT4=
EXTT5=
EXTT6=
EXTT7=
EXTT8=
PLAYORDER=
